<?xml version="1.0" standalone="no"?>
<!DOCTYPE svg PUBLIC "-//W3C//DTD SVG 20010904//EN"
 "http://www.w3.org/TR/2001/REC-SVG-20010904/DTD/svg10.dtd">
<svg version="1.0" xmlns="http://www.w3.org/2000/svg"
 width="270.000000pt" height="270.000000pt" viewBox="0 0 270.000000 270.000000"
 preserveAspectRatio="xMidYMid meet">
<metadata>
Created by potrace 1.11, written by Peter Selinger 2001-2013
</metadata>
<g transform="translate(0.000000,270.000000) scale(0.100000,-0.100000)"
fill="#000000" stroke="none">
<path d="M1895 2609 c-27 -4 -75 -10 -105 -14 -30 -4 -58 -12 -61 -18 -4 -5
-7 -129 -7 -276 -1 -146 -1 -293 -2 -327 l0 -60 -68 33 c-51 25 -81 34 -122
34 -130 2 -255 -86 -300 -210 -24 -64 -35 -71 -74 -45 -24 15 -24 18 -23 154
l2 139 -75 40 c-41 23 -109 59 -150 82 -175 96 -183 100 -220 94 -19 -3 -48
-7 -65 -9 -16 -2 -50 -7 -75 -11 -25 -4 -52 -8 -60 -7 -13 0 -15 -29 -15 -215
0 -118 -4 -217 -8 -220 -4 -2 -24 -7 -45 -9 -20 -2 -50 -7 -65 -10 l-28 -6 3
-91 3 -91 60 -33 c33 -18 64 -34 69 -36 6 -2 10 -200 10 -493 1 -451 2 -493
20 -543 25 -72 71 -115 192 -179 117 -61 237 -126 279 -150 83 -48 164 -52
313 -16 l72 17 -1 98 c-1 54 -5 102 -8 107 -3 5 -28 20 -56 34 -27 15 -74 39
-103 55 l-52 28 2 474 c2 329 6 475 14 478 7 2 10 -68 10 -234 -2 -306 7 -404
45 -525 26 -84 70 -136 152 -181 203 -114 403 -218 426 -222 89 -19 178 0 254
52 37 26 39 26 66 10 16 -9 37 -15 47 -13 10 2 55 9 99 16 44 6 89 13 100 15
11 2 23 4 26 4 3 1 5 467 5 1037 l-1 1036 -198 109 c-109 59 -205 107 -215
106 -9 -1 -39 -5 -67 -8z"/>
</g>
</svg>
