<?xml version="1.0" encoding="UTF-8"?>
<svg width="1500px" height="738px" viewBox="0 0 1500 738" version="1.1" xmlns="http://www.w3.org/2000/svg" xmlns:xlink="http://www.w3.org/1999/xlink">
    <!-- Generator: Sketch 52.2 (67145) - http://www.bohemiancoding.com/sketch -->
    <title>Group 3</title>
    <desc>Created with Sketch.</desc>
    <defs>
        <path d="M0,0 L0,737.032 L1500,737.032 L1500,36.38 C1499.748,36.786 1472.308,81.244 1465.672,125.042 C1459.006,169.042 1428.338,153.686 1396.34,189.686 C1364.338,225.686 1360.34,224.942 1365.508,275.612 C1368.514,305.082 1349.13,286.416 1318.02,267.752 C1295.646,254.33 1267.206,240.908 1236.666,245.388 C1163.662,256.102 1133.672,286.218 1111.006,308.25 C1088.338,330.284 1107.36,408.81 944.692,304.318 C841.076,237.758 784.382,259.966 713.69,282.172 C673.404,294.828 628.568,307.484 567.91,303.708 C543.588,302.196 515.21,310.45 489.436,318.704 C458.148,328.726 430.696,338.746 418.994,331.292 C397.65,317.698 397.672,264.884 382.626,215.552 C367.578,166.218 236.34,154.218 201.926,122.594 C183.836,105.97 156.322,114.67 129.016,123.368 C104.382,131.218 79.916,139.068 62.696,128.318 C26.382,105.65 0,0 0,0 Z" id="path-1"></path>
        <linearGradient x1="50%" y1="28.5402764%" x2="50%" y2="68.5277311%" id="linearGradient-3">
            <stop stop-color="#05BCED" offset="0%"></stop>
            <stop stop-color="#0489D3" offset="100%"></stop>
        </linearGradient>
    </defs>
    <g id="Page-1" stroke="none" stroke-width="1" fill="none" fill-rule="evenodd">
        <g id="Group-3">
            <mask id="mask-2" fill="white">
                <use xlink:href="#path-1"></use>
            </mask>
            <g id="Clip-2"></g>
            <path d="M0,0 L0,737.032 L1500,737.032 L1500,36.38 C1499.748,36.786 1472.308,81.244 1465.672,125.042 C1459.006,169.042 1428.338,153.686 1396.34,189.686 C1364.338,225.686 1360.34,224.942 1365.508,275.612 C1368.514,305.082 1349.13,286.416 1318.02,267.752 C1295.646,254.33 1267.206,240.908 1236.666,245.388 C1163.662,256.102 1133.672,286.218 1111.006,308.25 C1088.338,330.284 1107.36,408.81 944.692,304.318 C841.076,237.758 784.382,259.966 713.69,282.172 C673.404,294.828 628.568,307.484 567.91,303.708 C543.588,302.196 515.21,310.45 489.436,318.704 C458.148,328.726 430.696,338.746 418.994,331.292 C397.65,317.698 397.672,264.884 382.626,215.552 C367.578,166.218 236.34,154.218 201.926,122.594 C183.836,105.97 156.322,114.67 129.016,123.368 C104.382,131.218 79.916,139.068 62.696,128.318 C26.382,105.65 0,0 0,0 Z" id="Fill-1" fill="url(#linearGradient-3)" mask="url(#mask-2)"></path>
        </g>
    </g>
</svg>