<?xml version="1.0" encoding="UTF-8"?>
<svg width="1500px" height="681px" viewBox="0 0 1500 681" version="1.1" xmlns="http://www.w3.org/2000/svg" xmlns:xlink="http://www.w3.org/1999/xlink">
    <!-- Generator: Sketch 52.2 (67145) - http://www.bohemiancoding.com/sketch -->
    <title>Group 3</title>
    <desc>Created with Sketch.</desc>
    <defs>
        <path d="M0,0 L0,142.945344 L0,442.60219 L0,680.789474 L1499.66802,680.789474 L1499.66802,162.878543 C1401.60189,195.541161 1329.17746,223.027665 1282.39474,245.338057 C1212.21862,278.803644 1173.083,375.165992 1076.13158,344.168016 C979.182186,313.165992 953.109312,380.566802 868.089069,390.010121 C783.066802,399.459514 730.437247,356.273279 660.261134,306.253036 C617.708502,275.923077 571.684211,293.817814 524.311741,311.714575 C493.558704,323.331984 462.236842,334.951417 430.933198,333.37247 C351.404858,329.362348 321.530364,292.846154 292.809717,227.637652 C264.095142,162.427126 247.307692,175.435223 143.425101,134.949393 C39.5445344,94.465587 0,0 0,0 Z" id="path-1"></path>
        <linearGradient x1="49.9999917%" y1="37.6586068%" x2="49.9999917%" y2="77.6461667%" id="linearGradient-3">
            <stop stop-color="#0489D3" offset="0%"></stop>
            <stop stop-color="#016BB3" offset="100%"></stop>
        </linearGradient>
    </defs>
    <g id="Page-1" stroke="none" stroke-width="1" fill="none" fill-rule="evenodd">
        <g id="Group-3">
            <mask id="mask-2" fill="white">
                <use xlink:href="#path-1"></use>
            </mask>
            <g id="Clip-2"></g>
            <path d="M-2.04636308e-12,0 L4.6551164e-14,142.945344 L-2.04636308e-12,429.81205 L-2.04636308e-12,680.789474 L1499.66802,680.789474 C1514.07081,351.092282 1514.07081,171.810906 1499.66802,142.945344 C1478.06383,99.6470016 1352.56883,211.87247 1282.39474,245.338057 C1212.21862,278.803644 1173.083,375.165992 1076.13158,344.168016 C979.182186,313.165992 953.109312,380.566802 868.089069,390.010121 C783.066802,399.459514 730.437247,356.273279 660.261134,306.253036 C617.708502,275.923077 571.684211,293.817814 524.311741,311.714575 C493.558704,323.331984 462.236842,334.951417 430.933198,333.37247 C351.404858,329.362348 321.530364,292.846154 292.809717,227.637652 C264.095142,162.427126 247.307692,175.435223 143.425101,134.949393 C39.5445344,94.465587 -2.04636308e-12,0 -2.04636308e-12,0 Z" id="Fill-1" fill="url(#linearGradient-3)" mask="url(#mask-2)"></path>
        </g>
    </g>
</svg>