<?xml version="1.0" encoding="UTF-8"?>
<svg width="40px" height="38px" viewBox="0 0 40 38" version="1.1" xmlns="http://www.w3.org/2000/svg" xmlns:xlink="http://www.w3.org/1999/xlink">
    <!-- Generator: Sketch 47.1 (45422) - http://www.bohemiancoding.com/sketch -->
    <title>Asset 32</title>
    <desc>Created with Sketch.</desc>
    <defs></defs>
    <g id="Page-1" stroke="none" stroke-width="1" fill="none" fill-rule="evenodd">
        <g id="Asset-32" transform="translate(0.000000, -1.000000)" fill-rule="nonzero" fill="#FFFFFF">
            <path d="M39.32,24 L39.32,38.57 L30.89,38.57 L30.89,25 C30.89,21.59 29.67,19.27 26.62,19.27 C24.6733507,19.2791538 22.9432262,20.5126684 22.3,22.35 C22.0761498,23.0128511 21.9745015,23.710836 22,24.41 L22,38.57 L13.59,38.57 C13.59,38.57 13.7,15.57 13.59,13.22 L22,13.22 L22,16.81 L22,16.9 L22,16.9 L22,16.81 C23.5558072,14.1136146 26.4795314,12.5034477 29.59,12.63 C35.14,12.63 39.3,16.25 39.3,24.03 L39.32,24 Z M4.77,1 C1.89,1 7.25764934e-16,2.89 7.25764934e-16,5.38 C-0.00544947697,6.59277254 0.493337856,7.75326713 1.37704426,8.58387529 C2.26075066,9.41448345 3.44988945,9.84049453 4.66,9.76 L4.66,9.76 C7.6,9.76 9.43,7.81 9.43,5.38 C9.43247887,4.16817068 8.9327816,3.00947011 8.04976956,2.17951458 C7.16675751,1.34955905 5.97935299,0.922528761 4.77,1 Z M0.5,38.57 L8.93,38.57 L8.93,13.22 L0.5,13.22 L0.5,38.57 Z" id="Shape"></path>
        </g>
    </g>
</svg>