<?xml version="1.0" encoding="UTF-8"?>
<svg width="40px" height="40px" viewBox="0 0 40 40" version="1.1" xmlns="http://www.w3.org/2000/svg" xmlns:xlink="http://www.w3.org/1999/xlink">
    <!-- Generator: Sketch 47.1 (45422) - http://www.bohemiancoding.com/sketch -->
    <title>Asset 31</title>
    <desc>Created with Sketch.</desc>
    <defs></defs>
    <g id="Page-1" stroke="none" stroke-width="1" fill="none" fill-rule="evenodd">
        <g id="Asset-31" fill-rule="nonzero" fill="#FFFFFF">
            <path d="M19.66,0 C8.80208182,-6.64855737e-16 1.32971147e-15,8.80208182 0,19.66 C-1.32971147e-15,30.5179182 8.80208182,39.32 19.66,39.32 C30.5179182,39.32 39.32,30.5179182 39.32,19.66 C39.32,14.4458438 37.2486845,9.44524588 33.5617193,5.75828068 C29.8747541,2.07131548 24.8741562,3.19274984e-16 19.66,0 Z M31.66,10.19 C33.6659644,12.682755 34.8347249,15.7446276 35,18.94 C32.9400284,18.4892674 30.8386555,18.2546644 28.73,18.24 L28.73,18.24 C27.2380351,18.2377496 25.7488291,18.3682643 24.28,18.63 C23.95,17.8 23.6,17 23.28,16.24 C26.5125396,14.8862031 29.4076395,12.8377834 31.76,10.24 L31.66,10.19 Z M19.66,4.32 C23.137568,4.32121445 26.510414,5.51017794 29.22,7.69 C27.1694534,10.0521277 24.5891923,11.8956608 21.69,13.07 C20.1888331,10.1195271 18.4179554,7.31424248 16.4,4.69 C17.4693276,4.44465589 18.5628879,4.32054015 19.66,4.32 L19.66,4.32 Z M12.88,5.92 C14.9984399,8.49692718 16.8355299,11.2927905 18.36,14.26 C14.4199621,15.3979587 10.3410459,15.9835457 6.24,16 L6,16 C5.53,16 5.12,16 4.78,16 C5.88740629,11.6423818 8.84733022,7.98815475 12.88,6 L12.88,5.92 Z M4.32,19.66 C4.31501482,19.5867514 4.31501482,19.5132486 4.32,19.44 C4.76,19.44 5.32,19.44 5.99,19.44 L6,19.44 C10.7126642,19.4551475 15.4022361,18.7813584 19.92,17.44 C20.22,18.09 20.51,18.77 20.8,19.44 C17.601233,20.5192966 14.6622065,22.2527433 12.17,24.53 C10.5732611,26.0127745 9.17197563,27.692973 8,29.53 C5.65800419,26.774471 4.37145587,23.2763355 4.37,19.66 L4.32,19.66 Z M19.66,35 C16.3794865,35.0072389 13.1843175,33.9550428 10.55,32 C11.5398786,30.390273 12.7330343,28.9147932 14.1,27.61 C16.3710425,25.4231799 19.1053269,23.7757735 22.1,22.79 C23.3893224,26.4431742 24.3923514,30.1911593 25.1,34 C23.3636425,34.6652144 21.5194164,35.0042265 19.66,35 L19.66,35 Z M28.34,32.27 C27.6262395,28.7875089 26.6808043,25.3565482 25.51,22 C26.5494369,21.8448704 27.5990527,21.7679877 28.65,21.77 L28.7,21.77 C30.7210185,21.7879999 32.733626,22.0328671 34.7,22.5 C33.9465819,26.4792643 31.6540173,30.0007585 28.32,32.3 L28.34,32.27 Z" id="Shape"></path>
        </g>
    </g>
</svg>
