<?xml version="1.0" encoding="UTF-8"?>
<svg width="42px" height="26px" viewBox="0 0 42 26" version="1.1" xmlns="http://www.w3.org/2000/svg" xmlns:xlink="http://www.w3.org/1999/xlink">
    <!-- Generator: Sketch 52.2 (67145) - http://www.bohemiancoding.com/sketch -->
    <title>Group 37 Copy</title>
    <desc>Created with Sketch.</desc>
    <defs>
        <polygon id="path-1" points="3.497505 1.14757143 33.37933 1.14757143 33.37933 22.9149714 3.497505 22.9149714"></polygon>
    </defs>
    <g id="Page-1" stroke="none" stroke-width="1" fill="none" fill-rule="evenodd">
        <g id="Krabby-Desktop" transform="translate(-931.000000, -61.000000)">
            <g id="Group-40-Copy-2" transform="translate(932.000000, 59.000000)">
                <g id="Group-38">
                    <g id="Group-7">
                        <g id="Group-8">
                            <g id="Group-37-Copy" transform="translate(20.500000, 14.500000) scale(-1, 1) translate(-20.500000, -14.500000) ">
                                <path d="M0.98359,26.8859 C2.82449,26.8859 4.05449,25.6471857 5.89539,25.6471857 C7.73629,25.6471857 8.96629,26.8859 10.80719,26.8859 C12.65219,26.8859 13.87809,25.6471857 15.72309,25.6471857 C17.56399,25.6471857 18.78989,26.8859 20.63489,26.8859 C22.47579,26.8859 23.70579,25.6471857 25.54669,25.6471857 C27.38759,25.6471857 28.61759,26.8859 30.45849,26.8859 C32.30349,26.8859 33.52939,25.6471857 35.37439,25.6471857 C37.21529,25.6471857 38.44119,26.8859 40.28209,26.8859" id="Stroke-1" stroke="#FEFEFE" stroke-width="1.77816774" stroke-linecap="round"></path>
                                <g id="Group-5" transform="translate(1.025000, 0.925514)">
                                    <mask id="mask-2" fill="white">
                                        <use xlink:href="#path-1"></use>
                                    </mask>
                                    <g id="Clip-4"></g>
                                    <path d="M6.72113,2.49482857 L7.66413,3.44768571 L5.77813,5.35754286 L4.83103,4.40468571 L6.72113,2.49482857 Z M15.22453,11.0871143 L14.74893,11.5635429 L13.80593,12.5205429 L13.33443,12.9969714 L7.19263,6.79097143 C6.93433,6.52997143 6.93433,6.09911429 7.19263,5.83811429 L8.13973,4.88111429 C8.39803,4.62011429 8.82033,4.62011429 9.08273,4.88111429 L15.22453,11.0871143 Z M5.30253,6.79097143 L12.34223,13.9001143 C12.53083,14.0906857 12.57183,14.3724 12.47753,14.6251143 C11.64113,16.7959714 12.07163,19.3562571 13.80593,21.1086857 L14.38813,21.7011143 C14.49063,21.6928286 14.58903,21.6721143 14.69563,21.6721143 C16.54063,21.6721143 17.76653,22.9149714 19.61153,22.9149714 C21.45243,22.9149714 22.67833,21.6721143 24.52333,21.6721143 C25.62623,21.6721143 26.51183,22.1154 27.43843,22.4716857 L23.25233,18.2459714 C22.46923,17.4546857 21.20233,17.4546857 20.41923,18.2459714 L17.11463,21.5851143 C16.85223,21.8502571 16.42993,21.8502571 16.16753,21.5851143 L15.22453,20.6322571 C13.13763,18.5235429 13.13763,15.1056857 15.22453,12.9969714 C17.31143,10.8841143 20.69393,10.8841143 22.78083,12.9969714 L31.95663,22.2645429 C32.41583,22.0822571 32.88323,21.9082571 33.37933,21.7964 L23.25233,11.5635429 C21.51803,9.81111429 18.98423,9.37611429 16.83173,10.2212571 C16.58573,10.3206857 16.30693,10.2751143 16.11833,10.0845429 L9.08273,2.97125714 L7.66413,1.54197143 C7.14343,1.01582857 6.29883,1.01582857 5.77813,1.54197143 L3.88803,3.44768571 C3.36733,3.97382857 3.36733,4.8314 3.88803,5.35754286 L5.30253,6.79097143 Z" id="Fill-3" fill="#FEFEFE" mask="url(#mask-2)"></path>
                                </g>
                            </g>
                        </g>
                    </g>
                </g>
            </g>
        </g>
    </g>
</svg>