<svg xmlns="http://www.w3.org/2000/svg" xmlns:xlink="http://www.w3.org/1999/xlink" viewBox="0 0 215.05 68.4"><defs><style>.cls-1{fill:#d31c5b;}.cls-2{fill:#ed1f79;}.cls-3{isolation:isolate;}.cls-4{clip-path:url(#clip-path);}.cls-5{clip-path:url(#clip-path-2);}.cls-6{clip-path:url(#clip-path-3);}.cls-7{fill:#fff;}.cls-8{clip-path:url(#clip-path-4);}.cls-9{clip-path:url(#clip-path-5);}.cls-10{clip-path:url(#clip-path-6);}.cls-11{clip-path:url(#clip-path-7);}.cls-12{clip-path:url(#clip-path-8);}.cls-13{clip-path:url(#clip-path-9);}.cls-14{clip-path:url(#clip-path-10);}.cls-15{clip-path:url(#clip-path-11);}.cls-16{clip-path:url(#clip-path-12);}.cls-17{clip-path:url(#clip-path-13);}.cls-18{clip-path:url(#clip-path-14);}.cls-19{clip-path:url(#clip-path-15);}.cls-20{clip-path:url(#clip-path-16);}.cls-21{clip-path:url(#clip-path-17);}.cls-22{clip-path:url(#clip-path-18);}.cls-23{clip-path:url(#clip-path-19);}.cls-24{clip-path:url(#clip-path-20);}.cls-25{clip-path:url(#clip-path-21);}.cls-26{clip-path:url(#clip-path-22);}.cls-27{clip-path:url(#clip-path-23);}.cls-28{clip-path:url(#clip-path-24);}.cls-29{clip-path:url(#clip-path-25);}.cls-30{clip-path:url(#clip-path-26);}.cls-31{clip-path:url(#clip-path-27);}.cls-32{clip-path:url(#clip-path-28);}.cls-33{clip-path:url(#clip-path-29);}.cls-34{clip-path:url(#clip-path-30);}.cls-35{clip-path:url(#clip-path-31);}.cls-36{clip-path:url(#clip-path-32);}.cls-37{clip-path:url(#clip-path-33);}.cls-38{clip-path:url(#clip-path-34);}.cls-39{clip-path:url(#clip-path-35);}.cls-40{clip-path:url(#clip-path-36);}.cls-41{clip-path:url(#clip-path-37);}.cls-42{clip-path:url(#clip-path-38);}</style><clipPath id="clip-path"><path class="cls-1" d="M200.25,9.77l8.5,4.62a1.27,1.27,0,0,1,.47.45,5,5,0,0,1,.5,2.57l-8.51-4.63a5.17,5.17,0,0,0-.49-2.57A1.24,1.24,0,0,0,200.25,9.77Z"/></clipPath><clipPath id="clip-path-2"><path class="cls-2" d="M204.5,4.93,213,9.56a3.59,3.59,0,0,0-2.27-.3l-8.51-4.63A3.63,3.63,0,0,1,204.5,4.93Z"/></clipPath><clipPath id="clip-path-3"><path class="cls-1" d="M203.7,13.74l-8.51-4.63q3.45-4,7-4.48l8.51,4.63C208.34,9.6,206,11.09,203.7,13.74Z"/></clipPath><clipPath id="clip-path-4"><path class="cls-1" d="M180.51,38.86,189,43.48l.18.12a2.41,2.41,0,0,1,.84,2.1,2.89,2.89,0,0,1-1.35,2.53l-8.51-4.63a2.86,2.86,0,0,0,1.35-2.52,2.4,2.4,0,0,0-.84-2.11A.78.78,0,0,0,180.51,38.86Z"/></clipPath><clipPath id="clip-path-5"><path class="cls-1" d="M183,34.42l8.5,4.63a7.48,7.48,0,0,0-4-.72L179,33.7A7.74,7.74,0,0,1,183,34.42Z"/></clipPath><clipPath id="clip-path-6"><path class="cls-1" d="M180.4,49.36l-8.5-4.62.14.07a8,8,0,0,0,4,.12,10,10,0,0,0,4.18-1.33l8.51,4.63a10.1,10.1,0,0,1-4.19,1.32,7.77,7.77,0,0,1-4-.12Z"/></clipPath><clipPath id="clip-path-7"><path class="cls-1" d="M181.07,38.28l-8.5-4.63.09.05a4.05,4.05,0,0,0,1.81.2L183,38.53a4.07,4.07,0,0,1-1.82-.21Z"/></clipPath><clipPath id="clip-path-8"><path class="cls-1" d="M177,53.44l-8.5-4.62a4.08,4.08,0,0,1-2.09-3.9,6.39,6.39,0,0,1,1.18-3.71,10.6,10.6,0,0,1,3-2.84l8.5,4.63a10.56,10.56,0,0,0-3,2.84,6.25,6.25,0,0,0-1.18,3.71A4,4,0,0,0,177,53.44Z"/></clipPath><clipPath id="clip-path-9"><path class="cls-1" d="M190.24,15.57,181.74,11a9.38,9.38,0,0,1,1.47-1.79,12.93,12.93,0,0,1,2.42-2l8.51,4.63a12.93,12.93,0,0,0-2.42,2A9.89,9.89,0,0,0,190.24,15.57Z"/></clipPath><clipPath id="clip-path-10"><path class="cls-1" d="M177.82,42.58,169.32,38a2.94,2.94,0,0,1-.8-.63,2.71,2.71,0,0,1-.72-1.89,5.65,5.65,0,0,1,.75-2.9,21.25,21.25,0,0,1,2.45-3.2L179.5,34a21.06,21.06,0,0,0-2.44,3.2,5.55,5.55,0,0,0-.76,2.89,2.74,2.74,0,0,0,.72,1.89A2.79,2.79,0,0,0,177.82,42.58Z"/></clipPath><clipPath id="clip-path-11"><path class="cls-1" d="M182.52,30.69,174,26.06a2.81,2.81,0,0,0,1.78.24,3.19,3.19,0,0,0,2.79-2,16.46,16.46,0,0,0,.66-5.36,15.6,15.6,0,0,0-.64-5.31,2.07,2.07,0,0,0-.92-1.08l8.5,4.63a2,2,0,0,1,.92,1.08,15.31,15.31,0,0,1,.64,5.31,15.92,15.92,0,0,1-.66,5.36,3.18,3.18,0,0,1-2.79,2A2.79,2.79,0,0,1,182.52,30.69Z"/></clipPath><clipPath id="clip-path-12"><path class="cls-1" d="M179.82,8.81l8.51,4.62-.27-.13a6.8,6.8,0,0,0-3.74-.33,8.23,8.23,0,0,0-6,3.67c-1.39,2.08-2.08,4.92-2.09,8.55A15.52,15.52,0,0,0,177,30.8,7,7,0,0,0,179.5,34L171,29.33a6.85,6.85,0,0,1-2.51-3.16,15.06,15.06,0,0,1-.81-5.61q0-5.43,2.08-8.54a8.31,8.31,0,0,1,6.06-3.68,6.87,6.87,0,0,1,3.73.33A1.71,1.71,0,0,1,179.82,8.81Z"/></clipPath><clipPath id="clip-path-13"><path class="cls-1" d="M151.85,44.68l-8.5-4.63a3,3,0,0,0,1.88.28,3.21,3.21,0,0,0,2.16-1.2,4,4,0,0,0,.79-2.5,4.82,4.82,0,0,0-.55-2.34,6.41,6.41,0,0,0-1.79-1.95l8.5,4.62a6.51,6.51,0,0,1,1.79,1.95,4.77,4.77,0,0,1,.55,2.35,3.93,3.93,0,0,1-.78,2.5A3.18,3.18,0,0,1,153.73,45,3,3,0,0,1,151.85,44.68Z"/></clipPath><clipPath id="clip-path-14"><path class="cls-1" d="M148.89,48.62,140.38,44a6.21,6.21,0,0,1-1.26-.93,8.87,8.87,0,0,1-2.46-6l8.51,4.63a8.84,8.84,0,0,0,2.45,6A6,6,0,0,0,148.89,48.62Z"/></clipPath><clipPath id="clip-path-15"><path class="cls-1" d="M146.58,17.14l8.5,4.63a2.21,2.21,0,0,1,.84.8,10,10,0,0,1,1.13,3.85l-8.5-4.62A9.85,9.85,0,0,0,147.41,18,2.37,2.37,0,0,0,146.58,17.14Z"/></clipPath><clipPath id="clip-path-16"><path class="cls-1" d="M148.7,13.24l8.5,4.63a6.08,6.08,0,0,0-3.87-.54l-8.5-4.63A6.24,6.24,0,0,1,148.7,13.24Z"/></clipPath><clipPath id="clip-path-17"><path class="cls-1" d="M149.42,33.08l-8.51-4.62a10.38,10.38,0,0,1-2.61-2.94,8.36,8.36,0,0,1-.91-4.15,8.69,8.69,0,0,1,2-5.89,8.37,8.37,0,0,1,5.43-2.78l8.5,4.63a8.45,8.45,0,0,0-5.43,2.77,8.66,8.66,0,0,0-2,5.9,8.32,8.32,0,0,0,.91,4.14A9.84,9.84,0,0,0,149.42,33.08Z"/></clipPath><clipPath id="clip-path-18"><path class="cls-1" d="M131.93,47.54l-8.51-4.62a2.82,2.82,0,0,0,1.73.23,2.72,2.72,0,0,0,2.29-1.59,10.19,10.19,0,0,0,.61-3.92l8.5,4.62a10.24,10.24,0,0,1-.6,3.93,2.71,2.71,0,0,1-2.29,1.58A2.67,2.67,0,0,1,131.93,47.54Z"/></clipPath><clipPath id="clip-path-19"><path class="cls-1" d="M126.76,19.91l8.51,4.63a1.74,1.74,0,0,1,.75.83,12.29,12.29,0,0,1,.56,4.46l-8.51-4.62a12.31,12.31,0,0,0-.56-4.47A1.74,1.74,0,0,0,126.76,19.91Z"/></clipPath><clipPath id="clip-path-20"><path class="cls-1" d="M128.58,51.48l-8.51-4.63-.16-.09a6.07,6.07,0,0,1-2.58-3.7,25.2,25.2,0,0,1-.73-6.88l8.5,4.63a25.55,25.55,0,0,0,.74,6.88,6.06,6.06,0,0,0,2.57,3.7Z"/></clipPath><clipPath id="clip-path-21"><path class="cls-1" d="M129.92,16l8.51,4.62a7.78,7.78,0,0,0-4.77-.51c-3.19.45-5.41,1.75-6.66,3.92s-1.88,5.39-1.88,9.7l-8.51-4.63c0-4.3.63-7.54,1.89-9.7s3.46-3.47,6.65-3.92A7.75,7.75,0,0,1,129.92,16Z"/></clipPath><clipPath id="clip-path-22"><path class="cls-1" d="M110.09,50.38l-8.5-4.63a2.47,2.47,0,0,0,1.54.22,6.66,6.66,0,0,0,3.29-1.64L114.93,49a6.58,6.58,0,0,1-3.29,1.64A2.43,2.43,0,0,1,110.09,50.38Z"/></clipPath><clipPath id="clip-path-23"><path class="cls-1" d="M106.21,23.8l8.5,4.63a2,2,0,0,1,.25.14L106.46,24Z"/></clipPath><clipPath id="clip-path-24"><path class="cls-1" d="M106.54,54.79,98,50.16a4.82,4.82,0,0,1-1.73-1.64c-1.16-1.79-1.73-5-1.73-9.46l8.51,4.62q0,6.78,1.73,9.46A4.78,4.78,0,0,0,106.54,54.79Z"/></clipPath><clipPath id="clip-path-25"><path class="cls-1" d="M104.92,19.37l8.5,4.62a5.1,5.1,0,0,0-3.23-.6,6.61,6.61,0,0,0-5.56,4.33,27,27,0,0,0-1.54,9.94L94.58,33a27,27,0,0,1,1.55-9.94,6.61,6.61,0,0,1,5.56-4.33A5.11,5.11,0,0,1,104.92,19.37Z"/></clipPath><clipPath id="clip-path-26"><path class="cls-1" d="M79.57,54.9l-8.51-4.62a2.82,2.82,0,0,0,1.73.23,2.75,2.75,0,0,0,2.3-1.59,10.24,10.24,0,0,0,.6-3.93l8.51,4.63a10.12,10.12,0,0,1-.61,3.92,3.15,3.15,0,0,1-4,1.36Z"/></clipPath><clipPath id="clip-path-27"><path class="cls-1" d="M74.4,27.27l8.51,4.63a1.67,1.67,0,0,1,.74.83,12.23,12.23,0,0,1,.57,4.46l-8.51-4.63a12.07,12.07,0,0,0-.56-4.46A1.74,1.74,0,0,0,74.4,27.27Z"/></clipPath><clipPath id="clip-path-28"><path class="cls-1" d="M76.23,58.84l-8.51-4.62-.17-.1A6.07,6.07,0,0,1,65,50.42a26,26,0,0,1-.74-6.88l8.51,4.63a25.6,25.6,0,0,0,.73,6.88,6.09,6.09,0,0,0,2.59,3.7Z"/></clipPath><clipPath id="clip-path-29"><path class="cls-1" d="M77.57,23.34,86.07,28a7.72,7.72,0,0,0-4.78-.51c-3.18.45-5.4,1.75-6.65,3.92s-1.88,5.39-1.89,9.7l-8.5-4.63c0-4.31.64-7.54,1.88-9.7s3.47-3.47,6.66-3.92A7.8,7.8,0,0,1,77.57,23.34Z"/></clipPath><clipPath id="clip-path-30"><path class="cls-1" d="M59,57.81l-8.5-4.62a2.84,2.84,0,0,0,1.76.2,2.72,2.72,0,0,0,2.39-1.66,11.66,11.66,0,0,0,.56-4.13l8.51,4.62a11.72,11.72,0,0,1-.56,4.14A2.75,2.75,0,0,1,60.77,58,2.87,2.87,0,0,1,59,57.81Z"/></clipPath><clipPath id="clip-path-31"><path class="cls-1" d="M54,30.15l8.51,4.63a1.64,1.64,0,0,1,.66.67,9.41,9.41,0,0,1,.62,4.19L55.24,35a9.51,9.51,0,0,0-.62-4.18A1.63,1.63,0,0,0,54,30.15Z"/></clipPath><clipPath id="clip-path-32"><path class="cls-1" d="M55.76,61.73,47.25,57.1a3.37,3.37,0,0,1-.32-.19,6.16,6.16,0,0,1-2.51-3.79,26.5,26.5,0,0,1-.66-6.65l8.5,4.62a27.5,27.5,0,0,0,.66,6.66,6.18,6.18,0,0,0,2.51,3.78Z"/></clipPath><clipPath id="clip-path-33"><path class="cls-1" d="M57.22,26.21l8.5,4.63-.2-.1a8.41,8.41,0,0,0-4.8-.4l-8.51-4.63a8.53,8.53,0,0,1,4.81.4Z"/></clipPath><clipPath id="clip-path-34"><path class="cls-1" d="M52.28,44l-8.51-4.63a30.18,30.18,0,0,1,.68-7A8.68,8.68,0,0,1,47,27.87a9.53,9.53,0,0,1,5.23-2.16l8.51,4.63a9.46,9.46,0,0,0-5.23,2.16A8.55,8.55,0,0,0,53,37,30.33,30.33,0,0,0,52.28,44Z"/></clipPath><clipPath id="clip-path-35"><path class="cls-1" d="M37.31,33.68,28.8,29.05a6.41,6.41,0,0,1,.85-.06l8.5,4.63A5,5,0,0,0,37.31,33.68Z"/></clipPath><clipPath id="clip-path-36"><path class="cls-1" d="M30.92,39.37l-8.51-4.63a13.71,13.71,0,0,1,3.07-4.15,6.85,6.85,0,0,1,3.32-1.54l8.51,4.63A6.59,6.59,0,0,0,34,35.22,13.43,13.43,0,0,0,30.92,39.37Z"/></clipPath><clipPath id="clip-path-37"><path class="cls-1" d="M17.74,63.5l-8.5-4.63A2.76,2.76,0,0,0,11,59a12.79,12.79,0,0,0,1.95-.43l8.5,4.63a12.4,12.4,0,0,1-1.94.43A2.87,2.87,0,0,1,17.74,63.5Z"/></clipPath><clipPath id="clip-path-38"><path class="cls-1" d="M14,67.84,5.5,63.22C3.82,62.31,3,60.28,3,57.15l8.5,4.62Q11.5,66.48,14,67.84Z"/></clipPath></defs><title>Asset 1</title><g id="Layer_2" data-name="Layer 2"><g id="Layer_1-2" data-name="Layer 1"><g class="cls-3"><polygon class="cls-1" points="209.68 40.9 201.17 36.28 201.21 12.78 209.72 17.41 209.68 40.9"/><g class="cls-3"><path class="cls-1" d="M200.25,9.77l8.5,4.62a1.27,1.27,0,0,1,.47.45,5,5,0,0,1,.5,2.57l-8.51-4.63a5.17,5.17,0,0,0-.49-2.57A1.24,1.24,0,0,0,200.25,9.77Z"/><g class="cls-4"><g class="cls-3"><path class="cls-1" d="M209.72,17.41l-8.51-4.63a5.17,5.17,0,0,0-.49-2.57,1.24,1.24,0,0,0-.47-.44l8.5,4.62a1.27,1.27,0,0,1,.47.45,5,5,0,0,1,.5,2.57"/></g></g></g><g class="cls-3"><path class="cls-2" d="M204.5,4.93,213,9.56a3.59,3.59,0,0,0-2.27-.3l-8.51-4.63A3.63,3.63,0,0,1,204.5,4.93Z"/><g class="cls-5"><g class="cls-3"><path class="cls-2" d="M210.73,9.26l-8.51-4.63a4.07,4.07,0,0,1,1.65.06l8.51,4.62a4.27,4.27,0,0,0-1.65-.05"/><path class="cls-2" d="M212.38,9.31l-8.51-4.62a2.76,2.76,0,0,1,.53.19l8.51,4.63a3.39,3.39,0,0,0-.53-.2"/><path class="cls-2" d="M212.91,9.51,204.4,4.88l.1,0L213,9.56l-.09-.05"/></g></g></g><g class="cls-3"><path class="cls-1" d="M203.7,13.74l-8.51-4.63q3.45-4,7-4.48l8.51,4.63C208.34,9.6,206,11.09,203.7,13.74Z"/><g class="cls-6"><g class="cls-3"><path class="cls-1" d="M203.7,13.74l-8.51-4.63.14-.16,8.51,4.63a1.07,1.07,0,0,0-.14.16"/><path class="cls-1" d="M203.84,13.58,195.33,9a20.93,20.93,0,0,1,1.54-1.57L205.38,12a17.69,17.69,0,0,0-1.54,1.57"/><path class="cls-2" d="M205.38,12l-8.51-4.63a13.89,13.89,0,0,1,1.42-1.12l8.51,4.62A14.33,14.33,0,0,0,205.38,12"/><path class="cls-2" d="M206.8,10.88l-8.51-4.62a10.25,10.25,0,0,1,1.54-.9L208.34,10a10.53,10.53,0,0,0-1.54.89"/><path class="cls-2" d="M208.34,10l-8.51-4.63a8.32,8.32,0,0,1,2.39-.73l8.51,4.63a8,8,0,0,0-2.39.73"/></g></g></g><path class="cls-7" d="M210.73,9.26a3,3,0,0,1,3.33,1.35,8.61,8.61,0,0,1,1,4.38L215,40.16l-5.33.74.05-23.49a5,5,0,0,0-.5-2.57,1.64,1.64,0,0,0-1.79-.6c-1.06.15-2.31,1-3.74,2.46l-.05,25.05-5.32.75.05-31.08,5.33-.75v3.07C206,11.09,208.34,9.6,210.73,9.26Z"/><polygon class="cls-1" points="198.32 42.5 189.81 37.87 189.87 6.8 198.37 11.42 198.32 42.5"/><polygon class="cls-2" points="198.37 11.42 189.87 6.8 195.2 6.05 203.7 10.67 198.37 11.42"/></g><g class="cls-3"><g class="cls-3"><path class="cls-1" d="M180.51,38.86,189,43.48l.18.12a2.41,2.41,0,0,1,.84,2.1,2.89,2.89,0,0,1-1.35,2.53l-8.51-4.63a2.86,2.86,0,0,0,1.35-2.52,2.4,2.4,0,0,0-.84-2.11A.78.78,0,0,0,180.51,38.86Z"/><g class="cls-8"><g class="cls-3"><path class="cls-1" d="M188.69,48.23l-8.51-4.63h0l8.51,4.62,0,0"/><path class="cls-1" d="M188.72,48.21l-8.51-4.62a3.51,3.51,0,0,0,.36-.29l8.51,4.63a3.44,3.44,0,0,1-.36.28"/><path class="cls-1" d="M189.08,47.93l-8.51-4.63a2,2,0,0,0,.25-.25l8.51,4.63-.25.25"/><path class="cls-1" d="M189.33,47.68l-8.51-4.63a2.19,2.19,0,0,0,.2-.25l8.51,4.62c-.06.09-.13.17-.2.26"/><path class="cls-1" d="M189.53,47.42,181,42.8a2.61,2.61,0,0,0,.17-.28l8.51,4.63a2.46,2.46,0,0,1-.17.27"/><path class="cls-1" d="M189.7,47.15l-8.51-4.63a3.73,3.73,0,0,0,.16-.35l8.51,4.63a3.73,3.73,0,0,1-.16.35"/><path class="cls-1" d="M189.86,46.8l-8.51-4.63a3.2,3.2,0,0,0,.18-1.09,2.4,2.4,0,0,0-.84-2.11.78.78,0,0,0-.18-.11L189,43.48l.18.12a2.41,2.41,0,0,1,.84,2.1,3.21,3.21,0,0,1-.18,1.1"/></g></g></g><g class="cls-3"><path class="cls-1" d="M183,34.42l8.5,4.63a7.48,7.48,0,0,0-4-.72L179,33.7A7.74,7.74,0,0,1,183,34.42Z"/><g class="cls-9"><g class="cls-3"><path class="cls-1" d="M187.46,38.33,179,33.7a9,9,0,0,1,2.74.24l8.5,4.62a9.31,9.31,0,0,0-2.73-.23"/><path class="cls-1" d="M190.19,38.56l-8.5-4.62a5.73,5.73,0,0,1,1.08.39l8.5,4.63a5.75,5.75,0,0,0-1.08-.4"/><path class="cls-1" d="M191.27,39l-8.5-4.63.18.09,8.5,4.63-.18-.09"/></g></g></g><g class="cls-3"><path class="cls-1" d="M180.4,49.36l-8.5-4.62.14.07a8,8,0,0,0,4,.12,10,10,0,0,0,4.18-1.33l8.51,4.63a10.1,10.1,0,0,1-4.19,1.32,7.77,7.77,0,0,1-4-.12Z"/><g class="cls-10"><g class="cls-3"><path class="cls-1" d="M180.4,49.36l-8.5-4.62.08,0,8.5,4.62-.08,0"/><path class="cls-1" d="M180.48,49.4,172,44.78l.06,0,.43.15,8.5,4.62a2.41,2.41,0,0,1-.43-.15l-.06,0"/><path class="cls-1" d="M181,49.58,172.47,45a9.85,9.85,0,0,0,3.53,0,12.74,12.74,0,0,0,3.47-.92L188,48.63a12.23,12.23,0,0,1-3.48.92,9.85,9.85,0,0,1-3.53,0"/><path class="cls-1" d="M188,48.63,179.47,44a4.74,4.74,0,0,0,.71-.41l8.51,4.63a5.28,5.28,0,0,1-.71.4"/></g></g></g><polygon class="cls-1" points="182.98 38.53 174.47 33.9 178.96 33.7 187.46 38.33 182.98 38.53"/><g class="cls-3"><path class="cls-1" d="M181.07,38.28l-8.5-4.63.09.05a4.05,4.05,0,0,0,1.81.2L183,38.53a4.07,4.07,0,0,1-1.82-.21Z"/><g class="cls-11"><g class="cls-3"><path class="cls-1" d="M181.07,38.28l-8.5-4.63.06,0,8.5,4.63-.06,0"/><path class="cls-1" d="M181.13,38.31l-8.5-4.63,0,0a1.85,1.85,0,0,0,.31.11l8.5,4.62a1.42,1.42,0,0,1-.31-.11h0"/><path class="cls-1" d="M181.47,38.43,173,33.81a5.5,5.5,0,0,0,1.5.09L183,38.53a5.17,5.17,0,0,1-1.51-.1"/></g></g></g><g class="cls-3"><path class="cls-1" d="M177,53.44l-8.5-4.62a4.08,4.08,0,0,1-2.09-3.9,6.39,6.39,0,0,1,1.18-3.71,10.6,10.6,0,0,1,3-2.84l8.5,4.63a10.56,10.56,0,0,0-3,2.84,6.25,6.25,0,0,0-1.18,3.71A4,4,0,0,0,177,53.44Z"/><g class="cls-12"><g class="cls-3"><path class="cls-1" d="M177,53.44l-8.5-4.62a4.08,4.08,0,0,1-2.09-3.9,6.55,6.55,0,0,1,.39-2.21l8.51,4.63a6.23,6.23,0,0,0-.39,2.21A4,4,0,0,0,177,53.44"/><path class="cls-1" d="M175.33,47.34l-8.51-4.63a7.17,7.17,0,0,1,.36-.81l8.51,4.63a5.87,5.87,0,0,0-.36.81"/><path class="cls-1" d="M175.69,46.53l-8.51-4.63a6.65,6.65,0,0,1,.42-.66l8.5,4.62a6.68,6.68,0,0,0-.41.67"/><path class="cls-1" d="M176.1,45.86l-8.5-4.62v0a10.92,10.92,0,0,1,.73-.92l8.5,4.63a10.81,10.81,0,0,0-.72.92l0,0"/><path class="cls-1" d="M176.84,44.92l-8.5-4.63a9.41,9.41,0,0,1,.83-.84l8.51,4.62a11.23,11.23,0,0,0-.84.85"/><path class="cls-1" d="M177.68,44.07l-8.51-4.62a11.68,11.68,0,0,1,1.1-.87l8.51,4.63a12,12,0,0,0-1.1.86"/><path class="cls-1" d="M178.78,43.21l-8.51-4.63.31-.21,8.5,4.63-.3.21"/></g></g></g><polygon class="cls-2" points="194.14 11.8 185.63 7.17 186.43 6.69 194.94 11.32 194.14 11.8"/><g class="cls-3"><path class="cls-1" d="M190.24,15.57,181.74,11a9.38,9.38,0,0,1,1.47-1.79,12.93,12.93,0,0,1,2.42-2l8.51,4.63a12.93,12.93,0,0,0-2.42,2A9.89,9.89,0,0,0,190.24,15.57Z"/><g class="cls-13"><g class="cls-3"><path class="cls-1" d="M190.24,15.57,181.74,11a2.21,2.21,0,0,1,.21-.33l8.5,4.62-.21.33"/><path class="cls-1" d="M190.45,15.24,182,10.62a7.33,7.33,0,0,1,.58-.73L191,14.52a9.09,9.09,0,0,0-.59.72"/><path class="cls-2" d="M191,14.52l-8.51-4.63.68-.73c.24-.24.47-.47.72-.69l8.5,4.63c-.24.22-.48.44-.71.69s-.49.5-.68.73"/><path class="cls-2" d="M192.43,13.1l-8.5-4.63a13.62,13.62,0,0,1,1.28-1l8.51,4.63a12.56,12.56,0,0,0-1.29,1"/><path class="cls-2" d="M193.72,12.08l-8.51-4.63.42-.28,8.51,4.63-.42.28"/></g></g></g><g class="cls-3"><path class="cls-1" d="M177.82,42.58,169.32,38a2.94,2.94,0,0,1-.8-.63,2.71,2.71,0,0,1-.72-1.89,5.65,5.65,0,0,1,.75-2.9,21.25,21.25,0,0,1,2.45-3.2L179.5,34a21.06,21.06,0,0,0-2.44,3.2,5.55,5.55,0,0,0-.76,2.89,2.74,2.74,0,0,0,.72,1.89A2.79,2.79,0,0,0,177.82,42.58Z"/><g class="cls-14"><g class="cls-3"><path class="cls-1" d="M177.82,42.58,169.32,38a2.94,2.94,0,0,1-.8-.63,2.71,2.71,0,0,1-.72-1.89,5.68,5.68,0,0,1,.35-2l8.5,4.63a5.85,5.85,0,0,0-.35,2,2.74,2.74,0,0,0,.72,1.89,2.79,2.79,0,0,0,.8.64"/><path class="cls-1" d="M176.65,38l-8.5-4.63a4.28,4.28,0,0,1,.31-.69l8.5,4.62a6.21,6.21,0,0,0-.31.7"/><path class="cls-1" d="M177,37.32l-8.5-4.62.09-.17c.15-.26.33-.53.53-.83l8.51,4.63c-.21.3-.38.57-.53.83a1.4,1.4,0,0,0-.1.16"/><path class="cls-1" d="M177.59,36.33l-8.51-4.63a28.57,28.57,0,0,1,1.83-2.26l8.5,4.62a26.1,26.1,0,0,0-1.82,2.27"/><path class="cls-1" d="M179.41,34.06l-8.5-4.62.09-.11L179.5,34l-.09.1"/></g></g></g><g class="cls-3"><path class="cls-1" d="M182.52,30.69,174,26.06a2.81,2.81,0,0,0,1.78.24,3.19,3.19,0,0,0,2.79-2,16.46,16.46,0,0,0,.66-5.36,15.6,15.6,0,0,0-.64-5.31,2.07,2.07,0,0,0-.92-1.08l8.5,4.63a2,2,0,0,1,.92,1.08,15.31,15.31,0,0,1,.64,5.31,15.92,15.92,0,0,1-.66,5.36,3.18,3.18,0,0,1-2.79,2A2.79,2.79,0,0,1,182.52,30.69Z"/><g class="cls-15"><g class="cls-3"><path class="cls-1" d="M182.52,30.69,174,26.06l.07,0,8.51,4.63-.07,0"/><path class="cls-1" d="M182.59,30.73l-8.51-4.63a1.92,1.92,0,0,0,.42.16l8.5,4.62a2.86,2.86,0,0,1-.41-.15"/><path class="cls-1" d="M183,30.88l-8.5-4.62a3.41,3.41,0,0,0,1.29,0,4.54,4.54,0,0,0,1.26-.36l8.51,4.63a4.29,4.29,0,0,1-1.27.35,3.23,3.23,0,0,1-1.29,0"/><path class="cls-1" d="M185.56,30.57l-8.51-4.63a5,5,0,0,0,.46-.26L186,30.3a3.35,3.35,0,0,1-.45.27"/><path class="cls-1" d="M186,30.3l-8.5-4.62.29-.23,8.5,4.63a3.15,3.15,0,0,1-.29.22"/><path class="cls-1" d="M186.3,30.08l-8.5-4.63a2.39,2.39,0,0,0,.22-.23l8.51,4.63c-.07.08-.15.15-.23.23"/><path class="cls-1" d="M186.53,29.85,178,25.22a2.43,2.43,0,0,0,.2-.25l8.5,4.63a2.35,2.35,0,0,1-.19.25"/><path class="cls-1" d="M186.72,29.6,178.22,25a2.16,2.16,0,0,0,.18-.3l8.51,4.63c-.06.1-.12.2-.19.3"/><path class="cls-1" d="M186.91,29.3l-8.51-4.63a2.22,2.22,0,0,0,.18-.38l0-.07,8.51,4.63,0,.07c-.05.13-.11.26-.17.38"/><path class="cls-1" d="M187.11,28.85l-8.51-4.63a16.62,16.62,0,0,0,.64-5.29,15.6,15.6,0,0,0-.64-5.31,2.07,2.07,0,0,0-.92-1.08l8.5,4.63a2,2,0,0,1,.92,1.08,15.31,15.31,0,0,1,.64,5.31,16.43,16.43,0,0,1-.63,5.29"/></g></g></g><path class="cls-7" d="M187.46,38.33q3.39-.16,5,1.5c1.09,1.09,1.64,2.82,1.64,5.14q0,7.74-10,9.16a12.62,12.62,0,0,1-6.68-.49,4,4,0,0,1-2.48-4.09,6.25,6.25,0,0,1,1.18-3.71,10.56,10.56,0,0,1,3-2.84A3.44,3.44,0,0,1,177,41.94a2.74,2.74,0,0,1-.72-1.89,5.55,5.55,0,0,1,.76-2.89A21.06,21.06,0,0,1,179.5,34,7,7,0,0,1,177,30.8a15.52,15.52,0,0,1-.81-5.61c0-3.63.7-6.47,2.09-8.55a8.23,8.23,0,0,1,6-3.67,6.8,6.8,0,0,1,3.74.33,4.4,4.4,0,0,1,2.18,2.27,9.89,9.89,0,0,1,1.48-1.78,12.93,12.93,0,0,1,2.42-2l.8-.48,1.34,3.52a20.39,20.39,0,0,0-2.77,1.3,9.19,9.19,0,0,0-2.13,1.37,14.76,14.76,0,0,1,.63,2.6,20.26,20.26,0,0,1,.26,3,15.9,15.9,0,0,1-1.85,8.18A8,8,0,0,1,184.28,35a10.46,10.46,0,0,1-2.74,0,5.62,5.62,0,0,0-.95,2.5.88.88,0,0,0,.57.85,4.07,4.07,0,0,0,1.82.21ZM181.55,19a15.63,15.63,0,0,0-.74,5.5,13.3,13.3,0,0,0,.72,5,2.3,2.3,0,0,0,2.76,1.38,3.18,3.18,0,0,0,2.79-2,15.92,15.92,0,0,0,.66-5.36,15.31,15.31,0,0,0-.64-5.31c-.43-1.07-1.34-1.51-2.74-1.31A3.29,3.29,0,0,0,181.55,19m7.14,29.2A2.89,2.89,0,0,0,190,45.7a2.41,2.41,0,0,0-.84-2.1,5.16,5.16,0,0,0-3.09-.51l-4.53.21a17.49,17.49,0,0,0-1.6,2.21,3.78,3.78,0,0,0-.55,2,2,2,0,0,0,1.11,2,7.77,7.77,0,0,0,4,.12,10.1,10.1,0,0,0,4.19-1.32"/><g class="cls-3"><path class="cls-1" d="M179.82,8.81l8.51,4.62-.27-.13a6.8,6.8,0,0,0-3.74-.33,8.23,8.23,0,0,0-6,3.67c-1.39,2.08-2.08,4.92-2.09,8.55A15.52,15.52,0,0,0,177,30.8,7,7,0,0,0,179.5,34L171,29.33a6.85,6.85,0,0,1-2.51-3.16,15.06,15.06,0,0,1-.81-5.61q0-5.43,2.08-8.54a8.31,8.31,0,0,1,6.06-3.68,6.87,6.87,0,0,1,3.73.33A1.71,1.71,0,0,1,179.82,8.81Z"/><g class="cls-16"><g class="cls-3"><path class="cls-1" d="M179.5,34,171,29.33a6.85,6.85,0,0,1-2.51-3.16,15.06,15.06,0,0,1-.81-5.61,18.47,18.47,0,0,1,1-6.32l8.51,4.63a18.66,18.66,0,0,0-1,6.32A15.52,15.52,0,0,0,177,30.8,7,7,0,0,0,179.5,34"/><path class="cls-1" d="M177.15,18.87l-8.51-4.63a12.4,12.4,0,0,1,.64-1.43l8.51,4.63a11.67,11.67,0,0,0-.64,1.43"/><path class="cls-1" d="M177.79,17.44l-8.51-4.63a8.72,8.72,0,0,1,.48-.79,1.27,1.27,0,0,1,.13-.19l8.5,4.63-.12.18c-.17.26-.33.52-.48.8"/><path class="cls-1" d="M178.39,16.46l-8.5-4.63a9.29,9.29,0,0,1,.6-.77L179,15.69a7.64,7.64,0,0,0-.61.77"/><path class="cls-2" d="M179,15.69l-8.51-4.63a7.86,7.86,0,0,1,.64-.65L179.64,15a6.55,6.55,0,0,0-.64.65"/><path class="cls-2" d="M179.64,15l-8.51-4.63a7.46,7.46,0,0,1,.78-.61l8.51,4.62a9.22,9.22,0,0,0-.78.62"/><path class="cls-2" d="M180.42,14.42,171.91,9.8a8.05,8.05,0,0,1,1.14-.66l8.51,4.63a9.09,9.09,0,0,0-1.14.65"/><path class="cls-2" d="M181.56,13.77l-8.51-4.63a9.83,9.83,0,0,1,2.77-.8,7.85,7.85,0,0,1,3,.08l8.5,4.63a7.85,7.85,0,0,0-3-.08,9.53,9.53,0,0,0-2.76.8"/><path class="cls-1" d="M187.34,13.05l-8.5-4.63a4.94,4.94,0,0,1,.71.25l.12.06,8.51,4.63-.12-.06a3.81,3.81,0,0,0-.72-.25"/><path class="cls-1" d="M188.18,13.36l-8.51-4.63.15.08,8.51,4.62-.15-.07"/></g></g></g></g><g class="cls-3"><polygon class="cls-7" points="165.58 47.1 165.64 16.02 170.97 15.27 170.91 46.35 165.58 47.1"/><polygon class="cls-1" points="165.58 47.1 157.08 42.47 157.14 11.4 165.64 16.02 165.58 47.1"/><polygon class="cls-2" points="165.64 16.02 157.14 11.4 162.46 10.65 170.97 15.27 165.64 16.02"/></g><g class="cls-3"><g class="cls-3"><path class="cls-1" d="M151.85,44.68l-8.5-4.63a3,3,0,0,0,1.88.28,3.21,3.21,0,0,0,2.16-1.2,4,4,0,0,0,.79-2.5,4.82,4.82,0,0,0-.55-2.34,6.41,6.41,0,0,0-1.79-1.95l8.5,4.62a6.51,6.51,0,0,1,1.79,1.95,4.77,4.77,0,0,1,.55,2.35,3.93,3.93,0,0,1-.78,2.5A3.18,3.18,0,0,1,153.73,45,3,3,0,0,1,151.85,44.68Z"/><g class="cls-17"><g class="cls-3"><path class="cls-1" d="M151.85,44.68l-8.5-4.63.09.05,8.5,4.62-.09,0"/><path class="cls-1" d="M151.94,44.72l-8.5-4.62a2.48,2.48,0,0,0,.48.17l8.5,4.63a2,2,0,0,1-.48-.18"/><path class="cls-1" d="M152.42,44.9l-8.5-4.63a3.31,3.31,0,0,0,1.31.06,3.85,3.85,0,0,0,1.06-.31l8.51,4.63a3.92,3.92,0,0,1-1.07.3,3.33,3.33,0,0,1-1.31-.05"/><path class="cls-1" d="M154.8,44.65,146.29,40a3.83,3.83,0,0,0,.44-.25l8.5,4.63-.43.25"/><path class="cls-1" d="M155.23,44.4l-8.5-4.63a2.17,2.17,0,0,0,.29-.24l8.51,4.63-.3.24"/><path class="cls-1" d="M155.53,44.16,147,39.53a3,3,0,0,0,.25-.25l8.51,4.63a3,3,0,0,1-.25.25"/><path class="cls-1" d="M155.78,43.91l-8.51-4.63.12-.15a.76.76,0,0,0,.11-.14L156,43.62l-.11.14-.12.15"/><path class="cls-1" d="M156,43.62,147.5,39a2.39,2.39,0,0,0,.21-.34l8.51,4.62-.21.35"/><path class="cls-1" d="M156.22,43.27l-8.51-4.62a3.82,3.82,0,0,0,.21-.46l8.5,4.62a2.37,2.37,0,0,1-.2.46"/><path class="cls-1" d="M156.42,42.81l-8.5-4.62a5.07,5.07,0,0,0-.29-3.9,6.41,6.41,0,0,0-1.79-1.95l8.5,4.62a6.51,6.51,0,0,1,1.79,1.95,4.77,4.77,0,0,1,.55,2.35,4.46,4.46,0,0,1-.26,1.55"/></g></g></g><g class="cls-3"><path class="cls-1" d="M148.89,48.62,140.38,44a6.21,6.21,0,0,1-1.26-.93,8.87,8.87,0,0,1-2.46-6l8.51,4.63a8.84,8.84,0,0,0,2.45,6A6,6,0,0,0,148.89,48.62Z"/><g class="cls-18"><g class="cls-3"><path class="cls-1" d="M148.89,48.62,140.38,44a6.21,6.21,0,0,1-1.26-.93,8.87,8.87,0,0,1-2.46-6l8.51,4.63a8.84,8.84,0,0,0,2.45,6,6,6,0,0,0,1.27.93"/></g></g></g><polygon class="cls-1" points="145.17 41.7 136.66 37.07 141.1 34.99 149.61 39.61 145.17 41.7"/><polygon class="cls-1" points="154.34 36.96 145.84 32.34 140.91 28.46 149.42 33.08 154.34 36.96"/><g class="cls-3"><path class="cls-1" d="M146.58,17.14l8.5,4.63a2.21,2.21,0,0,1,.84.8,10,10,0,0,1,1.13,3.85l-8.5-4.62A9.85,9.85,0,0,0,147.41,18,2.37,2.37,0,0,0,146.58,17.14Z"/><g class="cls-19"><g class="cls-3"><path class="cls-1" d="M157.05,26.42l-8.5-4.62A9.85,9.85,0,0,0,147.41,18a2.37,2.37,0,0,0-.83-.81l8.5,4.63a2.21,2.21,0,0,1,.84.8,10,10,0,0,1,1.13,3.85"/></g></g></g><g class="cls-3"><path class="cls-1" d="M148.7,13.24l8.5,4.63a6.08,6.08,0,0,0-3.87-.54l-8.5-4.63A6.24,6.24,0,0,1,148.7,13.24Z"/><g class="cls-20"><g class="cls-3"><path class="cls-2" d="M153.33,17.33l-8.5-4.63a7,7,0,0,1,2.73.1l8.51,4.63a6.88,6.88,0,0,0-2.74-.1"/><path class="cls-1" d="M156.07,17.43l-8.51-4.63a5,5,0,0,1,1,.35L157,17.78a4.81,4.81,0,0,0-1-.35"/><path class="cls-1" d="M157,17.78l-8.51-4.63.18.09,8.5,4.63-.17-.09"/></g></g></g><g class="cls-3"><path class="cls-1" d="M149.42,33.08l-8.51-4.62a10.38,10.38,0,0,1-2.61-2.94,8.36,8.36,0,0,1-.91-4.15,8.69,8.69,0,0,1,2-5.89,8.37,8.37,0,0,1,5.43-2.78l8.5,4.63a8.45,8.45,0,0,0-5.43,2.77,8.66,8.66,0,0,0-2,5.9,8.32,8.32,0,0,0,.91,4.14A9.84,9.84,0,0,0,149.42,33.08Z"/><g class="cls-21"><g class="cls-3"><path class="cls-1" d="M149.42,33.08l-8.51-4.62a10.38,10.38,0,0,1-2.61-2.94,8.36,8.36,0,0,1-.91-4.15,10.41,10.41,0,0,1,.57-3.46l8.51,4.62A10,10,0,0,0,145.9,26a8.32,8.32,0,0,0,.91,4.14,9.84,9.84,0,0,0,2.61,2.94"/><path class="cls-1" d="M146.47,22.53,138,17.91a9.54,9.54,0,0,1,.46-1l8.51,4.62a7.77,7.77,0,0,0-.46,1"/><path class="cls-1" d="M146.93,21.51l-8.51-4.62a6.65,6.65,0,0,1,.48-.77l8.5,4.63a7.39,7.39,0,0,0-.47.76"/><path class="cls-2" d="M147.4,20.75l-8.5-4.63a6.12,6.12,0,0,1,.5-.64l0,0,8.51,4.63,0,0c-.17.21-.34.42-.5.65"/><path class="cls-2" d="M147.94,20.07l-8.51-4.63a8.13,8.13,0,0,1,.65-.66l8.51,4.62a6.86,6.86,0,0,0-.65.67"/><path class="cls-2" d="M148.59,19.4l-8.51-4.62a9,9,0,0,1,.77-.61l8.51,4.63a6.36,6.36,0,0,0-.77.6"/><path class="cls-2" d="M149.36,18.8l-8.51-4.63a8,8,0,0,1,1.14-.65l8.51,4.62a7.53,7.53,0,0,0-1.14.66"/><path class="cls-2" d="M150.5,18.14,142,13.52a9.9,9.9,0,0,1,2.84-.82l8.5,4.63a9.52,9.52,0,0,0-2.83.81"/></g></g></g><path class="cls-7" d="M153.33,17.33a5.53,5.53,0,0,1,5.16,1.55,9.07,9.07,0,0,1,2.15,5.59l-3.59,2a10,10,0,0,0-1.13-3.85,2.24,2.24,0,0,0-2.39-1,3,3,0,0,0-2.07,1.2,3.82,3.82,0,0,0-.78,2.38A3.65,3.65,0,0,0,152.12,28l5.07,4.34a14.92,14.92,0,0,1,3,3.39,8.25,8.25,0,0,1,1.06,4.42,8.86,8.86,0,0,1-2.15,6.22,9.43,9.43,0,0,1-5.84,2.86,6.46,6.46,0,0,1-5.65-1.57,8.84,8.84,0,0,1-2.45-6l4.44-2.09A9.45,9.45,0,0,0,151,43.89,2.7,2.7,0,0,0,153.73,45a3.18,3.18,0,0,0,2.17-1.19,3.93,3.93,0,0,0,.78-2.5,4.77,4.77,0,0,0-.55-2.35A6.51,6.51,0,0,0,154.34,37l-4.92-3.88a9.84,9.84,0,0,1-2.61-2.94A8.32,8.32,0,0,1,145.9,26a8.66,8.66,0,0,1,2-5.9A8.45,8.45,0,0,1,153.33,17.33Z"/></g><g class="cls-3"><polygon class="cls-1" points="136.56 40.38 128.05 35.75 133.24 35.02 141.74 39.65 136.56 40.38"/><polygon class="cls-1" points="136.55 42.26 128.05 37.63 128.05 35.75 136.56 40.38 136.55 42.26"/><g class="cls-3"><path class="cls-1" d="M131.93,47.54l-8.51-4.62a2.82,2.82,0,0,0,1.73.23,2.72,2.72,0,0,0,2.29-1.59,10.19,10.19,0,0,0,.61-3.92l8.5,4.62a10.24,10.24,0,0,1-.6,3.93,2.71,2.71,0,0,1-2.29,1.58A2.67,2.67,0,0,1,131.93,47.54Z"/><g class="cls-22"><g class="cls-3"><path class="cls-1" d="M131.93,47.54l-8.51-4.62.07,0L132,47.58l-.07,0"/><path class="cls-1" d="M132,47.58,123.49,43a2,2,0,0,0,.41.14l8.51,4.63a2.48,2.48,0,0,1-.41-.15"/><path class="cls-1" d="M132.41,47.73,123.9,43.1a3.19,3.19,0,0,0,1.25,0,3.85,3.85,0,0,0,1-.3l8.5,4.63a3.45,3.45,0,0,1-1,.29,3,3,0,0,1-1.25,0"/><path class="cls-1" d="M134.69,47.48l-8.5-4.63a2.88,2.88,0,0,0,.38-.22l8.51,4.63a3.61,3.61,0,0,1-.39.22"/><path class="cls-1" d="M135.08,47.26l-8.51-4.63a1.55,1.55,0,0,0,.24-.19l8.51,4.63-.24.19"/><path class="cls-1" d="M135.32,47.07l-8.51-4.63.2-.2,8.5,4.63-.19.2"/><path class="cls-1" d="M135.51,46.87,127,42.24l.17-.21,8.51,4.62a1.92,1.92,0,0,1-.18.22"/><path class="cls-1" d="M135.69,46.65,127.18,42c.06-.09.11-.18.16-.27l8.51,4.63-.16.26"/><path class="cls-1" d="M135.85,46.39l-8.51-4.63a1.24,1.24,0,0,0,.1-.2,2.33,2.33,0,0,0,.11-.28l8.51,4.63c0,.09-.07.19-.11.28l-.1.2"/><path class="cls-1" d="M136.06,45.91l-8.51-4.63a11,11,0,0,0,.5-3.64l8.5,4.62a11,11,0,0,1-.49,3.65"/></g></g></g><polygon class="cls-1" points="136.57 32.63 128.06 28 128.07 25.21 136.57 29.83 136.57 32.63"/><polygon class="cls-1" points="130.44 33.49 121.94 28.87 128.06 28 136.57 32.63 130.44 33.49"/><g class="cls-3"><path class="cls-1" d="M126.76,19.91l8.51,4.63a1.74,1.74,0,0,1,.75.83,12.29,12.29,0,0,1,.56,4.46l-8.51-4.62a12.31,12.31,0,0,0-.56-4.47A1.74,1.74,0,0,0,126.76,19.91Z"/><g class="cls-23"><g class="cls-3"><path class="cls-1" d="M136.58,29.83l-8.51-4.62a12.31,12.31,0,0,0-.56-4.47,1.74,1.74,0,0,0-.75-.83l8.51,4.63a1.74,1.74,0,0,1,.75.83,12.29,12.29,0,0,1,.56,4.46"/></g></g></g><g class="cls-3"><path class="cls-1" d="M128.58,51.48l-8.51-4.63-.16-.09a6.07,6.07,0,0,1-2.58-3.7,25.2,25.2,0,0,1-.73-6.88l8.5,4.63a25.55,25.55,0,0,0,.74,6.88,6.06,6.06,0,0,0,2.57,3.7Z"/><g class="cls-24"><g class="cls-3"><path class="cls-1" d="M128.58,51.48l-8.51-4.63-.16-.09a6.07,6.07,0,0,1-2.58-3.7,25.2,25.2,0,0,1-.73-6.88l8.5,4.63a25.55,25.55,0,0,0,.74,6.88,6.06,6.06,0,0,0,2.57,3.7l.17.09"/></g></g></g><polygon class="cls-1" points="125.1 40.81 116.6 36.18 116.61 29.08 125.11 33.71 125.1 40.81"/><g class="cls-3"><path class="cls-1" d="M129.92,16l8.51,4.62a7.78,7.78,0,0,0-4.77-.51c-3.19.45-5.41,1.75-6.66,3.92s-1.88,5.39-1.88,9.7l-8.51-4.63c0-4.3.63-7.54,1.89-9.7s3.46-3.47,6.65-3.92A7.75,7.75,0,0,1,129.92,16Z"/><g class="cls-25"><g class="cls-3"><path class="cls-1" d="M125.12,33.71l-8.51-4.63A24.17,24.17,0,0,1,117.74,21l8.51,4.62a24,24,0,0,0-1.13,8.08"/><path class="cls-1" d="M126.25,25.63,117.74,21a11,11,0,0,1,.62-1.38l8.5,4.63a11.54,11.54,0,0,0-.61,1.37"/><path class="cls-1" d="M126.86,24.26l-8.5-4.63a2,2,0,0,1,.14-.25,6,6,0,0,1,.34-.53l8.5,4.62c-.12.18-.23.35-.34.54l-.14.25"/><path class="cls-2" d="M127.34,23.47l-8.5-4.62a7.31,7.31,0,0,1,.48-.62l8.51,4.63a7.26,7.26,0,0,0-.49.61"/><path class="cls-2" d="M127.83,22.86l-8.51-4.63a7.66,7.66,0,0,1,.57-.57l8.5,4.63a6,6,0,0,0-.56.57"/><path class="cls-2" d="M128.39,22.29l-8.5-4.63a7.15,7.15,0,0,1,.73-.58l8.5,4.63a6.88,6.88,0,0,0-.73.58"/><path class="cls-2" d="M129.12,21.71l-8.5-4.63a8.13,8.13,0,0,1,1.16-.66L130.29,21a8.29,8.29,0,0,0-1.17.67"/><path class="cls-2" d="M130.29,21l-8.51-4.62a11.6,11.6,0,0,1,3.37-1,9.51,9.51,0,0,1,3.66.09l8.51,4.62a9.53,9.53,0,0,0-3.66-.08,11.82,11.82,0,0,0-3.37.95"/><path class="cls-1" d="M137.32,20.17l-8.51-4.62a5.05,5.05,0,0,1,.95.34l8.51,4.63a5.33,5.33,0,0,0-1-.35"/><path class="cls-1" d="M138.27,20.52l-8.51-4.63.16.09,8.51,4.62-.16-.08"/></g></g></g><path class="cls-7" d="M141.8,35l-11.36,1.59,0,6.24a7.59,7.59,0,0,0,.77,4,2.3,2.3,0,0,0,2.47.92A2.71,2.71,0,0,0,136,46.19a10.24,10.24,0,0,0,.6-3.93V40.37l5.18-.72v1.18a13.6,13.6,0,0,1-2,7.74A8.43,8.43,0,0,1,133.6,52a7.89,7.89,0,0,1-5.19-.63,6.06,6.06,0,0,1-2.57-3.7,25.55,25.55,0,0,1-.74-6.88l0-7.1q0-6.47,1.88-9.7c1.25-2.17,3.47-3.47,6.66-3.92q3.48-.49,5.25.82A6.45,6.45,0,0,1,141.25,25a39.08,39.08,0,0,1,.55,7.53Zm-11.35-3.2v1.67l6.13-.86v-2.8a12.29,12.29,0,0,0-.56-4.46c-.39-.86-1.19-1.2-2.42-1a3.18,3.18,0,0,0-2,.92,4.39,4.39,0,0,0-.93,2.26,27.67,27.67,0,0,0-.25,4.3"/></g><g class="cls-3"><polygon class="cls-1" points="114.92 54.22 106.41 49.59 106.41 47.6 114.92 52.23 114.92 54.22"/><g class="cls-3"><path class="cls-1" d="M110.09,50.38l-8.5-4.63a2.47,2.47,0,0,0,1.54.22,6.66,6.66,0,0,0,3.29-1.64L114.93,49a6.58,6.58,0,0,1-3.29,1.64A2.43,2.43,0,0,1,110.09,50.38Z"/><g class="cls-26"><g class="cls-3"><path class="cls-1" d="M110.09,50.38l-8.5-4.63.07,0,8.5,4.63-.07,0"/><path class="cls-1" d="M110.16,50.42l-8.5-4.63a2,2,0,0,0,.37.14l8.51,4.63-.38-.14"/><path class="cls-1" d="M110.54,50.56,102,45.93a3.06,3.06,0,0,0,1.1,0,5.6,5.6,0,0,0,1.5-.46l8.51,4.62a5,5,0,0,1-1.5.46,2.85,2.85,0,0,1-1.1,0"/><path class="cls-1" d="M113.14,50.13l-8.51-4.62a7.86,7.86,0,0,0,1.06-.62l8.5,4.63a7.67,7.67,0,0,1-1,.61"/><path class="cls-1" d="M114.19,49.52l-8.5-4.63c.24-.17.48-.36.73-.56L114.93,49a9.18,9.18,0,0,1-.74.57"/></g></g></g><polygon class="cls-1" points="114.93 48.95 106.42 44.33 106.46 23.95 114.96 28.57 114.93 48.95"/><g class="cls-3"><path class="cls-1" d="M106.21,23.8l8.5,4.63a2,2,0,0,1,.25.14L106.46,24Z"/><g class="cls-27"><g class="cls-3"><path class="cls-1" d="M115,28.57,106.46,24l-.25-.15,8.5,4.63a2,2,0,0,1,.25.14"/></g></g></g><g class="cls-3"><path class="cls-1" d="M106.54,54.79,98,50.16a4.82,4.82,0,0,1-1.73-1.64c-1.16-1.79-1.73-5-1.73-9.46l8.51,4.62q0,6.78,1.73,9.46A4.78,4.78,0,0,0,106.54,54.79Z"/><g class="cls-28"><g class="cls-3"><path class="cls-1" d="M106.54,54.79,98,50.16a4.82,4.82,0,0,1-1.73-1.64c-1.16-1.79-1.73-5-1.73-9.46l8.51,4.62q0,6.78,1.73,9.46a4.78,4.78,0,0,0,1.73,1.65"/></g></g></g><polygon class="cls-1" points="103.08 43.68 94.57 39.06 94.58 33.03 103.09 37.66 103.08 43.68"/><polygon class="cls-2" points="115 10.67 106.49 6.04 111.82 5.29 120.33 9.92 115 10.67"/><polygon class="cls-1" points="114.97 25.14 106.47 20.51 106.49 6.04 115 10.67 114.97 25.14"/><g class="cls-3"><path class="cls-1" d="M104.92,19.37l8.5,4.62a5.1,5.1,0,0,0-3.23-.6,6.61,6.61,0,0,0-5.56,4.33,27,27,0,0,0-1.54,9.94L94.58,33a27,27,0,0,1,1.55-9.94,6.61,6.61,0,0,1,5.56-4.33A5.11,5.11,0,0,1,104.92,19.37Z"/><g class="cls-29"><g class="cls-3"><path class="cls-1" d="M103.09,37.66,94.58,33a28,28,0,0,1,1.36-9.46l8.51,4.62a28.1,28.1,0,0,0-1.36,9.47"/><path class="cls-1" d="M104.45,28.19l-8.51-4.62c.06-.17.12-.32.19-.48s.25-.58.39-.85L105,26.87c-.14.27-.28.55-.4.85l-.18.47"/><path class="cls-1" d="M105,26.87l-8.51-4.63A7.71,7.71,0,0,1,97,21.5l8.51,4.62a7.17,7.17,0,0,0-.46.75"/><path class="cls-2" d="M105.49,26.12,97,21.5a6.65,6.65,0,0,1,.46-.59l8.5,4.63a6.41,6.41,0,0,0-.45.58"/><path class="cls-2" d="M105.94,25.54l-8.5-4.63a5.9,5.9,0,0,1,.5-.5L106.45,25a6.14,6.14,0,0,0-.51.51"/><path class="cls-2" d="M106.45,25l-8.51-4.62a6.89,6.89,0,0,1,.61-.49l8.51,4.63a7.16,7.16,0,0,0-.61.48"/><path class="cls-2" d="M107.06,24.55l-8.51-4.63a7.39,7.39,0,0,1,.91-.52L108,24a5.7,5.7,0,0,0-.9.52"/><path class="cls-2" d="M108,24l-8.5-4.63a7.85,7.85,0,0,1,2.23-.64,5.06,5.06,0,0,1,2,.11l8.51,4.63a4.93,4.93,0,0,0-2-.11A7.72,7.72,0,0,0,108,24"/><path class="cls-1" d="M112.18,23.5l-8.51-4.63a5.82,5.82,0,0,1,1,.38l8.5,4.63a5,5,0,0,0-1-.38"/><path class="cls-1" d="M113.2,23.88l-8.5-4.63.22.12,8.5,4.62-.22-.11"/></g></g></g><path class="cls-7" d="M115,10.67l5.33-.75-.09,43.55-5.32.75v-2a7.19,7.19,0,0,1-4.64,3.07c-2.49.35-4.32-.37-5.47-2.16s-1.74-4.94-1.73-9.46v-6a27,27,0,0,1,1.54-9.94,6.61,6.61,0,0,1,5.56-4.33A5.62,5.62,0,0,1,115,25.14ZM114.93,49l0-20.38a5.23,5.23,0,0,0-3.38-.86c-2.09.29-3.14,2.61-3.15,6.94l0,8.77a18.08,18.08,0,0,0,.64,5.6,2.15,2.15,0,0,0,2.59,1.57A6.58,6.58,0,0,0,114.93,49"/></g><g class="cls-3"><polygon class="cls-7" points="99.33 50.02 99.32 56.41 93.99 57.16 94 50.77 99.33 50.02"/><polygon class="cls-1" points="93.99 57.16 85.49 52.53 85.5 46.14 94 50.77 93.99 57.16"/><polygon class="cls-2" points="94 50.77 85.5 46.14 90.83 45.39 99.33 50.02 94 50.77"/></g><g class="cls-3"><polygon class="cls-1" points="84.2 47.73 75.69 43.11 80.87 42.38 89.38 47.01 84.2 47.73"/><polygon class="cls-1" points="84.2 49.62 75.69 44.99 75.69 43.11 84.2 47.73 84.2 49.62"/><g class="cls-3"><path class="cls-1" d="M79.57,54.9l-8.51-4.62a2.82,2.82,0,0,0,1.73.23,2.75,2.75,0,0,0,2.3-1.59,10.24,10.24,0,0,0,.6-3.93l8.51,4.63a10.12,10.12,0,0,1-.61,3.92,3.15,3.15,0,0,1-4,1.36Z"/><g class="cls-30"><g class="cls-3"><path class="cls-1" d="M79.57,54.9l-8.51-4.62.08,0,8.5,4.63-.07,0"/><path class="cls-1" d="M79.64,54.94l-8.5-4.63a1.49,1.49,0,0,0,.4.15l8.51,4.63a2.86,2.86,0,0,1-.41-.15"/><path class="cls-1" d="M80.05,55.09l-8.51-4.63a3.2,3.2,0,0,0,1.25,0,4,4,0,0,0,1-.3l8.5,4.63a3.52,3.52,0,0,1-1,.29,3.17,3.17,0,0,1-1.24,0"/><path class="cls-1" d="M82.33,54.84l-8.5-4.63a2.88,2.88,0,0,0,.38-.22l8.5,4.63a2.71,2.71,0,0,1-.38.22"/><path class="cls-1" d="M82.71,54.62,74.21,50a2.43,2.43,0,0,0,.25-.2L83,54.42a2.43,2.43,0,0,1-.25.2"/><path class="cls-1" d="M83,54.42l-8.5-4.63a1.7,1.7,0,0,0,.19-.19l8.51,4.62a1.89,1.89,0,0,1-.2.2"/><path class="cls-1" d="M83.16,54.22,74.65,49.6l.18-.22L83.33,54a1.84,1.84,0,0,1-.17.22"/><path class="cls-1" d="M83.33,54l-8.5-4.62c.06-.09.11-.18.16-.27l8.51,4.62a1.78,1.78,0,0,1-.17.27"/><path class="cls-1" d="M83.5,53.73,75,49.11l.1-.19c0-.09.07-.18.11-.28l8.5,4.63a2.18,2.18,0,0,1-.11.27l-.09.19"/><path class="cls-1" d="M83.7,53.27l-8.5-4.63A11,11,0,0,0,75.69,45l8.51,4.63a11,11,0,0,1-.5,3.65"/></g></g></g><polygon class="cls-1" points="84.21 39.99 75.71 35.36 75.71 32.56 84.22 37.19 84.21 39.99"/><polygon class="cls-1" points="78.09 40.85 69.58 36.22 75.71 35.36 84.21 39.99 78.09 40.85"/><g class="cls-3"><path class="cls-1" d="M74.4,27.27l8.51,4.63a1.67,1.67,0,0,1,.74.83,12.23,12.23,0,0,1,.57,4.46l-8.51-4.63a12.07,12.07,0,0,0-.56-4.46A1.74,1.74,0,0,0,74.4,27.27Z"/><g class="cls-31"><g class="cls-3"><path class="cls-1" d="M84.22,37.19l-8.51-4.63a12.07,12.07,0,0,0-.56-4.46,1.74,1.74,0,0,0-.75-.83l8.51,4.63a1.67,1.67,0,0,1,.74.83,12.23,12.23,0,0,1,.57,4.46"/></g></g></g><g class="cls-3"><path class="cls-1" d="M76.23,58.84l-8.51-4.62-.17-.1A6.07,6.07,0,0,1,65,50.42a26,26,0,0,1-.74-6.88l8.51,4.63a25.6,25.6,0,0,0,.73,6.88,6.09,6.09,0,0,0,2.59,3.7Z"/><g class="cls-32"><g class="cls-3"><path class="cls-1" d="M76.23,58.84l-8.51-4.62-.17-.1A6.07,6.07,0,0,1,65,50.42a26,26,0,0,1-.74-6.88l8.51,4.63a25.6,25.6,0,0,0,.73,6.88,6.09,6.09,0,0,0,2.59,3.7l.17.09"/></g></g></g><polygon class="cls-1" points="72.74 48.17 64.23 43.54 64.25 36.44 72.75 41.07 72.74 48.17"/><g class="cls-3"><path class="cls-1" d="M77.57,23.34,86.07,28a7.72,7.72,0,0,0-4.78-.51c-3.18.45-5.4,1.75-6.65,3.92s-1.88,5.39-1.89,9.7l-8.5-4.63c0-4.31.64-7.54,1.88-9.7s3.47-3.47,6.66-3.92A7.8,7.8,0,0,1,77.57,23.34Z"/><g class="cls-33"><g class="cls-3"><path class="cls-1" d="M72.75,41.07l-8.5-4.63a23.7,23.7,0,0,1,1.14-8.08L73.89,33a24.27,24.27,0,0,0-1.14,8.09"/><path class="cls-1" d="M73.89,33l-8.5-4.62A9.73,9.73,0,0,1,66,27l8.51,4.62A10.88,10.88,0,0,0,73.89,33"/><path class="cls-1" d="M74.51,31.6,66,27l.13-.24c.11-.18.22-.36.34-.53L75,30.83a6.1,6.1,0,0,0-.34.54l-.13.23"/><path class="cls-2" d="M75,30.83l-8.51-4.62a5.8,5.8,0,0,1,.49-.62l8.5,4.63a7.16,7.16,0,0,0-.48.61"/><path class="cls-2" d="M75.46,30.22,67,25.59a6,6,0,0,1,.56-.57L76,29.65a7.66,7.66,0,0,0-.57.57"/><path class="cls-2" d="M76,29.65,67.52,25a7.3,7.3,0,0,1,.74-.58l8.5,4.63a6.88,6.88,0,0,0-.73.58"/><path class="cls-2" d="M76.76,29.07l-8.5-4.63a7.62,7.62,0,0,1,1.16-.66l8.51,4.62a8.29,8.29,0,0,0-1.17.67"/><path class="cls-2" d="M77.93,28.4l-8.51-4.62a11.6,11.6,0,0,1,3.37-1,9.56,9.56,0,0,1,3.67.09L85,27.53a9.64,9.64,0,0,0-3.68-.08,11.85,11.85,0,0,0-3.36.95"/><path class="cls-1" d="M85,27.53l-8.51-4.62a5.32,5.32,0,0,1,1,.34l8.51,4.63a5.63,5.63,0,0,0-1-.35"/><path class="cls-1" d="M85.92,27.88l-8.51-4.63.16.09L86.07,28l-.15-.08"/></g></g></g><path class="cls-7" d="M89.44,42.38,78.08,44v6.24a7.61,7.61,0,0,0,.76,4,2.3,2.3,0,0,0,2.46.92,2.71,2.71,0,0,0,2.3-1.59,10.12,10.12,0,0,0,.61-3.92V47.73L89.38,47v1.18a13.6,13.6,0,0,1-2,7.74,8.44,8.44,0,0,1-6.19,3.45,7.88,7.88,0,0,1-5.17-.63,6.09,6.09,0,0,1-2.59-3.7,25.6,25.6,0,0,1-.73-6.88v-7.1q0-6.47,1.89-9.7c1.25-2.17,3.47-3.47,6.65-3.92q3.49-.49,5.26.82a6.44,6.44,0,0,1,2.33,4.05,38.16,38.16,0,0,1,.56,7.53Zm-11.35-3.2v1.67L84.21,40v-2.8a12.23,12.23,0,0,0-.57-4.46c-.38-.86-1.18-1.2-2.41-1a3.15,3.15,0,0,0-2,.92,4.35,4.35,0,0,0-.93,2.26,29,29,0,0,0-.25,4.3"/></g><g class="cls-3"><polygon class="cls-1" points="63.72 52.22 55.22 47.6 55.22 45.07 63.73 49.7 63.72 52.22"/><polygon class="cls-1" points="63.73 49.7 55.22 45.07 60.05 44.39 68.55 49.02 63.73 49.7"/><g class="cls-3"><path class="cls-1" d="M59,57.81l-8.5-4.62a2.84,2.84,0,0,0,1.76.2,2.72,2.72,0,0,0,2.39-1.66,11.66,11.66,0,0,0,.56-4.13l8.51,4.62a11.72,11.72,0,0,1-.56,4.14A2.75,2.75,0,0,1,60.77,58,2.87,2.87,0,0,1,59,57.81Z"/><g class="cls-34"><g class="cls-3"><path class="cls-1" d="M59,57.81l-8.5-4.62.06,0,8.5,4.62-.06,0"/><path class="cls-1" d="M59.06,57.84l-8.5-4.62a2,2,0,0,0,.37.13L59.44,58a1.57,1.57,0,0,1-.38-.14"/><path class="cls-1" d="M59.44,58l-8.51-4.63a3.39,3.39,0,0,0,1.33,0,4.05,4.05,0,0,0,1.13-.32l8.5,4.63a4,4,0,0,1-1.12.32,3.39,3.39,0,0,1-1.33,0"/><path class="cls-1" d="M61.89,57.7l-8.5-4.63a2.46,2.46,0,0,0,.39-.22l8.5,4.63a3.61,3.61,0,0,1-.39.22"/><path class="cls-1" d="M62.28,57.48l-8.5-4.63.24-.19,8.51,4.62a2.43,2.43,0,0,1-.25.2"/><path class="cls-1" d="M62.53,57.28,54,52.66c.07-.06.13-.13.19-.19l8.51,4.62-.19.19"/><path class="cls-1" d="M62.72,57.09l-8.51-4.62.16-.21,8.51,4.63-.16.2"/><path class="cls-1" d="M62.88,56.89l-8.51-4.63a1.28,1.28,0,0,0,.15-.25L63,56.64l-.15.25"/><path class="cls-1" d="M63,56.64,54.52,52a1.43,1.43,0,0,0,.13-.28l.05-.11,8.5,4.62,0,.12a2.39,2.39,0,0,1-.13.28"/><path class="cls-1" d="M63.2,56.24l-8.5-4.62a12.22,12.22,0,0,0,.51-4l8.51,4.62a12.13,12.13,0,0,1-.52,4"/></g></g></g><polygon class="cls-1" points="63.74 41.53 55.23 36.9 55.24 35.01 63.74 39.64 63.74 41.53"/><g class="cls-3"><path class="cls-1" d="M54,30.15l8.51,4.63a1.64,1.64,0,0,1,.66.67,9.41,9.41,0,0,1,.62,4.19L55.24,35a9.51,9.51,0,0,0-.62-4.18A1.63,1.63,0,0,0,54,30.15Z"/><g class="cls-35"><g class="cls-3"><path class="cls-1" d="M63.74,39.64,55.24,35a9.51,9.51,0,0,0-.62-4.18,1.63,1.63,0,0,0-.67-.68l8.51,4.63a1.64,1.64,0,0,1,.66.67,9.41,9.41,0,0,1,.62,4.19"/></g></g></g><g class="cls-3"><path class="cls-1" d="M55.76,61.73,47.25,57.1a3.37,3.37,0,0,1-.32-.19,6.16,6.16,0,0,1-2.51-3.79,26.5,26.5,0,0,1-.66-6.65l8.5,4.62a27.5,27.5,0,0,0,.66,6.66,6.18,6.18,0,0,0,2.51,3.78Z"/><g class="cls-36"><g class="cls-3"><path class="cls-1" d="M55.76,61.73,47.25,57.1a3.37,3.37,0,0,1-.32-.19,6.16,6.16,0,0,1-2.51-3.79,26.5,26.5,0,0,1-.66-6.65l8.5,4.62a27.5,27.5,0,0,0,.66,6.66,6.18,6.18,0,0,0,2.51,3.78l.33.2"/></g></g></g><g class="cls-3"><path class="cls-1" d="M57.22,26.21l8.5,4.63-.2-.1a8.41,8.41,0,0,0-4.8-.4l-8.51-4.63a8.53,8.53,0,0,1,4.81.4Z"/><g class="cls-37"><g class="cls-3"><path class="cls-2" d="M60.72,30.34l-8.51-4.63a10.18,10.18,0,0,1,3.91.08l8.51,4.62a10.21,10.21,0,0,0-3.91-.07"/><path class="cls-1" d="M64.63,30.41l-8.51-4.62a4.53,4.53,0,0,1,.9.32l0,0,8.5,4.62h0a5.48,5.48,0,0,0-.89-.33"/><path class="cls-1" d="M65.55,30.75l-8.5-4.62.17.08,8.5,4.63-.17-.09"/></g></g></g><polygon class="cls-1" points="52.26 51.09 43.76 46.47 43.77 39.32 52.27 43.95 52.26 51.09"/><g class="cls-3"><path class="cls-1" d="M52.28,44l-8.51-4.63a30.18,30.18,0,0,1,.68-7A8.68,8.68,0,0,1,47,27.87a9.53,9.53,0,0,1,5.23-2.16l8.51,4.63a9.46,9.46,0,0,0-5.23,2.16A8.55,8.55,0,0,0,53,37,30.33,30.33,0,0,0,52.28,44Z"/><g class="cls-38"><g class="cls-3"><path class="cls-1" d="M52.28,44l-8.51-4.63a30.18,30.18,0,0,1,.68-7,10,10,0,0,1,.36-1.17l8.5,4.63c-.13.37-.25.76-.35,1.16a30.33,30.33,0,0,0-.68,7"/><path class="cls-1" d="M53.31,35.8l-8.5-4.63A9.14,9.14,0,0,1,45.34,30l8.5,4.63a10,10,0,0,0-.53,1.19"/><path class="cls-1" d="M53.84,34.61,45.34,30a7,7,0,0,1,.51-.82l8.5,4.62c-.18.27-.35.54-.51.83"/><path class="cls-2" d="M54.35,33.78l-8.5-4.62q.26-.36.54-.69L54.9,33.1a6.05,6.05,0,0,0-.55.68"/><path class="cls-2" d="M54.9,33.1l-8.51-4.63a8.35,8.35,0,0,1,.59-.6l0,0,8.51,4.63,0,0a6.67,6.67,0,0,0-.59.6"/><path class="cls-2" d="M55.53,32.46,47,27.83a7.1,7.1,0,0,1,.67-.53l8.51,4.63a7.1,7.1,0,0,0-.67.53"/><path class="cls-2" d="M56.2,31.93,47.69,27.3a8.44,8.44,0,0,1,1.11-.63l8.5,4.63a7.72,7.72,0,0,0-1.1.63"/><path class="cls-2" d="M57.3,31.3l-8.5-4.63a12.15,12.15,0,0,1,3.41-1l8.51,4.63a12,12,0,0,0-3.42,1"/></g></g></g><path class="cls-7" d="M60.72,30.34a8.41,8.41,0,0,1,4.8.4,4.6,4.6,0,0,1,2.39,2.86A17.71,17.71,0,0,1,68.57,39v1.83l-4.83.68V39.64a9.41,9.41,0,0,0-.62-4.19,2.08,2.08,0,0,0-2.36-.87,3.11,3.11,0,0,0-2,.92,4.31,4.31,0,0,0-.9,2.23A28.24,28.24,0,0,0,57.61,42l0,9.78a20.72,20.72,0,0,0,.3,4.08,2.91,2.91,0,0,0,1,1.85,2.71,2.71,0,0,0,1.92.3,2.75,2.75,0,0,0,2.39-1.66,11.72,11.72,0,0,0,.56-4.14V49.7L68.55,49v2.15c0,3.37-.58,6-1.73,7.77s-3.21,2.92-6.16,3.33c-2.26.32-4,.08-5.23-.74a6.18,6.18,0,0,1-2.51-3.78,27.5,27.5,0,0,1-.66-6.66l0-7.14A30.33,30.33,0,0,1,53,37a8.55,8.55,0,0,1,2.53-4.46A9.46,9.46,0,0,1,60.72,30.34Z"/></g><g class="cls-3"><polygon class="cls-7" points="41.73 64.51 41.79 33.43 47.12 32.68 47.06 63.76 41.73 64.51"/><polygon class="cls-1" points="41.73 64.51 33.23 59.88 33.28 28.8 41.79 33.43 41.73 64.51"/><polygon class="cls-2" points="41.79 33.43 33.28 28.8 38.61 28.05 47.12 32.68 41.79 33.43"/></g><g class="cls-3"><g class="cls-3"><path class="cls-1" d="M37.31,33.68,28.8,29.05a6.41,6.41,0,0,1,.85-.06l8.5,4.63A5,5,0,0,0,37.31,33.68Z"/><g class="cls-39"><g class="cls-3"><path class="cls-2" d="M37.31,33.68,28.8,29.05a6.41,6.41,0,0,1,.85-.06l8.5,4.63a5,5,0,0,0-.84.06"/></g></g></g><g class="cls-3"><path class="cls-1" d="M30.92,39.37l-8.51-4.63a13.71,13.71,0,0,1,3.07-4.15,6.85,6.85,0,0,1,3.32-1.54l8.51,4.63A6.59,6.59,0,0,0,34,35.22,13.43,13.43,0,0,0,30.92,39.37Z"/><g class="cls-40"><g class="cls-3"><path class="cls-1" d="M30.92,39.37l-8.51-4.63.09-.16L31,39.2l-.08.17"/><path class="cls-1" d="M31,39.2l-8.5-4.62a18.06,18.06,0,0,1,1.22-2l8.51,4.62a22.14,22.14,0,0,0-1.23,2"/><path class="cls-2" d="M32.23,37.19l-8.51-4.62c.28-.4.57-.76.85-1.09l8.5,4.63a12.7,12.7,0,0,0-.84,1.08"/><path class="cls-2" d="M33.07,36.11l-8.5-4.63a9,9,0,0,1,.69-.69l8.5,4.62a9.17,9.17,0,0,0-.69.7"/><path class="cls-2" d="M33.76,35.41l-8.5-4.62.22-.2c.18-.15.37-.28.55-.41l8.51,4.62c-.19.13-.37.27-.55.42l-.23.19"/><path class="cls-2" d="M34.54,34.8,26,30.18a6.4,6.4,0,0,1,1-.6l8.51,4.63a7.16,7.16,0,0,0-1,.59"/><path class="cls-2" d="M35.57,34.21l-8.51-4.63a6.23,6.23,0,0,1,1.74-.53l8.51,4.63a5.74,5.74,0,0,0-1.74.53"/></g></g></g><path class="cls-7" d="M37.31,33.68a5,5,0,0,1,.84-.06V40a7.21,7.21,0,0,0-2.94-.24,4.62,4.62,0,0,0-2.31,1,8.28,8.28,0,0,0-2,2.61l0,22.69-5.33.75.06-31.07L30.92,35v4.41A13.43,13.43,0,0,1,34,35.22,6.59,6.59,0,0,1,37.31,33.68Z"/><polygon class="cls-1" points="25.54 66.78 17.03 62.16 17.09 31.08 25.6 35.7 25.54 66.78"/><polygon class="cls-2" points="25.6 35.7 17.09 31.08 22.42 30.33 30.92 34.96 25.6 35.7"/></g><g class="cls-3"><g class="cls-3"><path class="cls-1" d="M17.74,63.5l-8.5-4.63A2.76,2.76,0,0,0,11,59a12.79,12.79,0,0,0,1.95-.43l8.5,4.63a12.4,12.4,0,0,1-1.94.43A2.87,2.87,0,0,1,17.74,63.5Z"/><g class="cls-41"><g class="cls-3"><path class="cls-1" d="M17.74,63.5l-8.5-4.63,0,0,8.5,4.62-.05,0"/><path class="cls-1" d="M17.79,63.52,9.29,58.9,9.6,59l8.51,4.63a1.52,1.52,0,0,1-.32-.12"/><path class="cls-1" d="M18.11,63.64,9.6,59A3.56,3.56,0,0,0,11,59a12.79,12.79,0,0,0,1.95-.43l8.5,4.63a12.4,12.4,0,0,1-1.94.43,3.56,3.56,0,0,1-1.36,0"/></g></g></g><g class="cls-3"><path class="cls-1" d="M14,67.84,5.5,63.22C3.82,62.31,3,60.28,3,57.15l8.5,4.62Q11.5,66.48,14,67.84Z"/><g class="cls-42"><g class="cls-3"><path class="cls-1" d="M14,67.84,5.5,63.22C3.82,62.31,3,60.28,3,57.15l8.5,4.62q0,4.71,2.5,6.07"/></g></g></g><polygon class="cls-2" points="16.88 36.93 8.38 32.3 13.01 31.65 21.52 36.28 16.88 36.93"/><polygon class="cls-1" points="11.5 61.77 3 57.15 3.03 36.87 11.54 41.49 11.5 61.77"/><polygon class="cls-2" points="8.51 38.11 0.01 33.48 3.04 33.05 11.55 37.68 8.51 38.11"/><polygon class="cls-1" points="8.51 41.92 0 37.29 0.01 33.48 8.51 38.11 8.51 41.92"/><polygon class="cls-2" points="11.56 28.59 3.06 23.96 8.39 23.21 16.9 27.84 11.56 28.59"/><polygon class="cls-1" points="11.55 37.68 3.04 33.05 3.06 23.96 11.56 28.59 11.55 37.68"/><path class="cls-7" d="M16.9,27.84l0,9.09,4.64-.65v3.81l-4.63.65,0,19.9a4.26,4.26,0,0,0,.54,2.56c.36.45,1.06.61,2.09.46a12.4,12.4,0,0,0,1.94-.43v4.25a26.39,26.39,0,0,1-3.69.83c-4.15.58-6.23-1.59-6.22-6.54l0-20.28-3,.43V38.11l3-.43V28.59Z"/></g><g class="cls-3"><polygon class="cls-7" points="41.81 22.78 47.14 22.03 47.13 28.06 41.8 28.81 41.81 22.78"/><polygon class="cls-2" points="41.81 22.78 33.3 18.16 38.63 17.41 47.14 22.03 41.81 22.78"/><polygon class="cls-1" points="41.8 28.81 33.29 24.18 33.3 18.16 41.81 22.78 41.8 28.81"/></g><g class="cls-3"><polygon class="cls-7" points="165.66 5.38 170.99 4.63 170.98 10.65 165.65 11.4 165.66 5.38"/><polygon class="cls-2" points="165.66 5.38 157.16 0.75 162.48 0 170.99 4.63 165.66 5.38"/><polygon class="cls-1" points="165.65 11.4 157.14 6.77 157.16 0.75 165.66 5.38 165.65 11.4"/></g></g></g></svg>